HIERARCHY
ROOT Hips
{
  OFFSET -102.467 93.6631 130.069
  CHANNELS 6 Xposition Yposition Zposition Zrotation Xrotation Yrotation
  JOINT LeftUpLeg
  {
    OFFSET 8.64259 1.95398 -2.38835
    CHANNELS 3 Zrotation Xrotation Yrotation
    JOINT LeftLeg
    {
      OFFSET 43.7702 0 0
      CHANNELS 3 Zrotation Xrotation Yrotation
      JOINT LeftFoot
      {
        OFFSET 40.6238 0 0
        CHANNELS 3 Zrotation Xrotation Yrotation
        JOINT LeftToeBase
        {
          OFFSET 12.7242 0 0
          CHANNELS 3 Zrotation Xrotation Yrotation
          End Site
          {
            OFFSET 0 0 0
          }
        }
      }
    }
  }
  JOINT RightUpLeg
  {
    OFFSET -8.2249 1.95398 -2.59336
    CHANNELS 3 Zrotation Xrotation Yrotation
    JOINT RightLeg
    {
      OFFSET 43.5653 0 0
      CHANNELS 3 Zrotation Xrotation Yrotation
      JOINT RightFoot
      {
        OFFSET 40.6238 0 0
        CHANNELS 3 Zrotation Xrotation Yrotation
        JOINT RightToeBase
        {
          OFFSET 12.7242 0 0
          CHANNELS 3 Zrotation Xrotation Yrotation
          End Site
          {
            OFFSET 0 0 0
          }
        }
      }
    }
  }
  JOINT Spine
  {
    OFFSET 0.165834 0.87714 6.61349
    CHANNELS 3 Zrotation Xrotation Yrotation
    JOINT Spine1
    {
      OFFSET 7.38963 1.71661e-005 0
      CHANNELS 3 Zrotation Xrotation Yrotation
      JOINT Spine2
      {
        OFFSET 11.9445 1.14441e-005 0
        CHANNELS 3 Zrotation Xrotation Yrotation
        JOINT Spine3
        {
          OFFSET 14.7254 4.19617e-005 0
          CHANNELS 3 Zrotation Xrotation Yrotation
          JOINT Spine4
          {
            OFFSET 10.9679 0 0
            CHANNELS 3 Zrotation Xrotation Yrotation
            JOINT RightShoulder
            {
              OFFSET 2.46616 -1.6653 3.69651
              CHANNELS 3 Zrotation Xrotation Yrotation
              JOINT RightArm
              {
                OFFSET 13.0012 0 0
                CHANNELS 3 Zrotation Xrotation Yrotation
                JOINT RightForeArm
                {
                  OFFSET 28.7848 1.52588e-005 0
                  CHANNELS 3 Zrotation Xrotation Yrotation
                  JOINT RightHand
                  {
                    OFFSET 26.5688 1.52588e-005 0
                    CHANNELS 3 Zrotation Xrotation Yrotation
                    End Site
                    {
                      OFFSET 0 0 0
                    }
                  }
                }
              }
            }
            JOINT LeftShoulder
            {
              OFFSET 2.38034 -1.29275 -3.7523
              CHANNELS 3 Zrotation Xrotation Yrotation
              JOINT LeftArm
              {
                OFFSET 16.3182 6.10351e-005 0
                CHANNELS 3 Zrotation Xrotation Yrotation
                JOINT LeftForeArm
                {
                  OFFSET 27.0901 0 0
                  CHANNELS 3 Zrotation Xrotation Yrotation
                  JOINT LeftHand
                  {
                    OFFSET 24.5451 1.52588e-005 0
                    CHANNELS 3 Zrotation Xrotation Yrotation
                    End Site
                    {
                      OFFSET 0 0 0
                    }
                  }
                }
              }
            }
            JOINT Neck
            {
              OFFSET 5.0226 -0.0266342 0
              CHANNELS 3 Zrotation Xrotation Yrotation
              JOINT Head
              {
                OFFSET 6.69363 2.86102e-005 0
                CHANNELS 3 Zrotation Xrotation Yrotation
                End Site
                {
                  OFFSET 0 0 0
                }
              }
            }
          }
        }
      }
    }
  }
}
MOTION
Frames:	18
Frame Time:	0.0416667
-1.7781 99.2937 50.1989 146.668 -82.9657 149.571 -172.058 -2.93898 93.3618 -12.0544 19.148 2.09903 56.3894 3.67521 17.4172 42.9205 -1.06564 3.07583 175.562 1.45059 88.8374 -15.9266 -1.73867 -0.602869 59.6911 7.4937 15.1109 27.248 1.09015 4.95376 -0.19853 7.23807 -90.4064 12.4163 -0.587489 -0.743248 0.745342 -0.619636 -0.716679 -21.7886 -0.336966 -0.88544 -1.7759 -0.336966 -0.885442 100.731 -55.1916 -84.273 29.652 -2.87064 -5.43384 -3.09699 -7.90604 -14.4895 -12.5915 -0.771375 1.99523 -80.9006 -53.7538 92.4247 -26.3176 8.50906 -15.8127 0.513253 30.853 -5.61328 -1.45513 -0.0905861 -3.79203 0.221228 -0.832333 -6.7796 -16.5696 -0.372047 4.6238 
-1.76408 99.2725 50.2196 146.888 -82.9818 149.756 -172.023 -2.96267 93.3483 -12.0305 19.0292 2.04756 56.4847 3.72337 17.4109 43.02 -1.19566 2.44885 175.464 1.44489 88.7143 -15.9225 -1.74881 -0.548554 59.6185 7.65561 15.4484 27.1603 1.15899 5.32228 -0.18815 7.23806 -90.4067 12.4074 -0.567055 -0.74676 0.73638 -0.599365 -0.721084 -21.7974 -0.316413 -0.882646 -1.7848 -0.316413 -0.882652 100.789 -55.0816 -84.1896 29.8139 -2.605 -5.48654 -3.40181 -8.504 -14.4317 -11.4448 -0.71812 2.18792 -80.9607 -53.7865 92.339 -26.3986 8.21435 -16.0561 0.741915 32.8718 -5.42436 -2.18216 -0.0911941 -4.44479 0.139933 -0.925654 -6.84163 -16.4794 -0.4622 4.66635 
-1.80237 99.2602 50.1802 146.21 -82.9704 149.103 -172.033 -2.85289 93.3643 -12.0534 18.5979 2.07372 56.57 3.77194 17.2915 42.9979 -1.30718 1.85761 175.5 1.4405 88.8192 -15.8438 -1.89779 -0.520094 59.774 7.27311 14.6996 26.6831 1.56649 7.59055 -0.203693 7.23177 -90.4044 12.4053 -0.596891 -0.739558 0.734273 -0.628865 -0.712581 -21.7997 -0.34704 -0.884747 -1.78701 -0.347043 -0.884756 100.704 -55.0502 -84.3152 29.9078 -2.44781 -5.45607 -3.68349 -9.35976 -14.4672 -11.3823 -0.702079 2.05968 -80.8831 -53.6305 92.4438 -26.4175 8.55062 -16.696 -0.647601 30.736 -3.48144 -0.484663 -0.0944757 -4.4237 0.29873 -0.927616 -7.51882 -16.818 -0.467019 5.5205 
-1.79281 99.266 50.1797 145.295 -83.0539 148.183 -172.216 -2.79962 93.2124 -11.8887 17.6335 2.20613 56.7925 3.85655 16.8446 42.8549 -1.38583 1.37273 175.546 1.57571 88.8365 -15.8811 -1.86489 -0.55268 59.7418 7.37737 14.7891 26.9126 1.40379 6.71284 -0.209875 7.2165 -90.402 12.4388 -0.608121 -0.733014 0.767838 -0.639786 -0.705555 -21.7661 -0.359718 -0.881887 -1.75349 -0.359709 -0.881882 100.682 -55.0567 -84.3468 29.9072 -2.36393 -5.36976 -3.73859 -9.31654 -14.5145 -11.1164 -0.660503 1.79273 -80.9402 -53.6781 92.3633 -26.3245 8.6043 -16.6165 -0.530835 31.2862 -3.67693 -0.518949 -0.097815 -4.56596 0.0444584 -0.921393 -7.39236 -16.4398 -0.452697 5.29607 
-1.78546 99.2556 50.1989 146.399 -83.1293 149.267 -171.855 -2.92088 93.3512 -11.5066 17.0812 1.89642 56.9698 3.92902 16.6999 42.3422 -1.5513 0.194139 175.483 1.56981 88.7407 -15.8399 -1.81635 -0.527165 59.6972 7.56567 15.3074 26.2889 1.54844 6.98289 -0.189438 7.2106 -90.3984 12.4355 -0.565901 -0.73161 0.764443 -0.597541 -0.706001 -21.7695 -0.319867 -0.867847 -1.7568 -0.319869 -0.867856 100.732 -55.0541 -84.2739 29.8401 -2.58512 -5.38948 -3.53576 -8.99667 -14.3987 -11.5135 -0.67486 1.69104 -81.0381 -53.6615 92.2197 -26.2767 8.49412 -16.6247 -0.484741 31.2856 -3.71565 -1.41565 -0.100984 -4.67649 -0.00354054 -0.908369 -7.47329 -16.3487 -0.433838 5.35703 
-1.80188 99.2692 50.177 146.001 -83.0821 148.879 -171.761 -2.97918 93.3631 -11.2888 16.0745 1.85126 57.4646 4.18271 16.1985 41.5726 -1.64352 -0.81685 175.529 1.55393 88.815 -15.8573 -1.9112 -0.545653 59.8832 7.28331 14.7519 26.45 1.55103 7.2015 -0.203705 7.2085 -90.3966 12.4287 -0.593435 -0.725446 0.757672 -0.624789 -0.698634 -21.7763 -0.347986 -0.870529 -1.76367 -0.347986 -0.870531 100.647 -55.109 -84.3973 29.7326 -2.68778 -5.40114 -3.46076 -8.93993 -14.3408 -11.7299 -0.68868 1.7004 -80.9449 -53.6784 92.3565 -26.1637 8.68591 -16.6529 -0.523179 31.6088 -3.75809 -0.532914 -0.103447 -4.82073 0.16397 -0.854293 -7.4438 -16.7136 -0.389339 5.34638 
-1.77465 99.25 50.1554 145.452 -83.0371 148.256 -171.969 -3.03896 93.1359 -11.0988 14.4616 1.99668 57.8861 4.29299 15.4405 40.885 -1.82124 -2.33031 175.448 1.60966 88.6784 -15.9288 -1.68831 -0.526729 59.7559 7.53054 15.1955 26.3264 1.55484 7.07762 -0.212525 7.20922 -90.3887 12.4231 -0.607219 -0.708502 0.752108 -0.63782 -0.681097 -21.782 -0.366228 -0.858247 -1.76935 -0.366221 -0.858232 100.626 -55.0057 -84.4311 29.8132 -2.72528 -5.29267 -3.47621 -8.96111 -14.498 -11.8019 -0.715736 1.93019 -80.9904 -53.6587 92.2888 -26.1763 8.80438 -16.6827 -0.711736 30.1206 -3.58185 0.00329649 -0.104536 -5.06814 0.062679 -0.872813 -7.58148 -16.4495 -0.405084 5.55323 
-1.80174 99.2701 50.1327 144.764 -82.9952 147.58 -171.857 -3.07604 93.1538 -10.8218 13.1334 1.94506 58.3407 4.47999 14.8155 40.0094 -1.92633 -3.69077 175.446 1.70984 88.7365 -16.1448 -1.75366 -0.488459 60.0532 7.23001 14.6637 26.1754 1.6371 7.49666 -0.22637 7.21135 -90.3856 12.43 -0.6332 -0.698663 0.759084 -0.663329 -0.670126 -21.7751 -0.393959 -0.856645 -1.76249 -0.393958 -0.856645 100.595 -55.1034 -84.4736 29.618 -2.89761 -5.31201 -3.39916 -8.90189 -14.4023 -11.6994 -0.716633 2.0059 -80.9481 -53.5969 92.3474 -26.1481 8.9621 -16.6466 -0.691016 30.1565 -3.73189 0.731732 -0.1011 -4.7713 -0.0674321 -0.881763 -7.62428 -16.3906 -0.409615 5.51545 
-1.78166 99.2443 50.1497 145.148 -83.15 147.968 -171.807 -3.07567 93.1107 -10.51 11.3824 1.91178 58.8315 4.6029 14.0241 39.5406 -2.17641 -5.65254 175.528 1.81557 88.7282 -16.101 -1.67059 -0.579543 59.7824 7.56692 15.1925 26.4297 1.53424 7.05433 -0.201193 7.21351 -90.3972 12.4447 -0.58856 -0.725662 0.773719 -0.619924 -0.699058 -21.7602 -0.34327 -0.868985 -1.7476 -0.343267 -0.868988 100.667 -54.8882 -84.3739 29.7653 -2.78506 -5.32246 -3.48974 -9.13288 -14.4378 -11.7213 -0.718505 2.01108 -81.0737 -53.7233 92.1709 -26.1129 8.69043 -16.7415 -0.458215 31.1863 -3.8257 0.207396 -0.0904541 -4.36655 0.0755232 -0.851271 -7.5654 -16.5203 -0.398047 5.6396 
-1.79435 99.2383 50.1633 145.868 -83.1306 148.725 -171.606 -3.13221 93.191 -10.4065 9.76794 1.82484 59.5089 4.79071 13.1565 38.4033 -2.22682 -7.23205 175.455 1.73003 88.7386 -16.0965 -1.79181 -0.488971 59.9798 7.36599 14.9739 26.1906 1.59364 7.19347 -0.198777 7.21654 -90.3919 12.4321 -0.581271 -0.716381 0.761074 -0.612233 -0.690112 -21.7729 -0.339111 -0.857956 -1.76028 -0.3391 -0.857945 100.62 -54.9182 -84.4428 29.7825 -2.7902 -5.2766 -3.50892 -9.16187 -14.4486 -11.6309 -0.701474 1.89425 -81.0556 -53.6686 92.1946 -26.1147 8.69052 -16.7268 -0.573374 30.5649 -3.65175 0.597879 -0.0983348 -4.61421 0.0854312 -0.889957 -7.5324 -16.6631 -0.433661 5.51386 
-1.81467 99.2441 50.1136 145.25 -83.0808 148.091 -171.613 -3.16248 93.1262 -10.172 8.06593 1.86822 60.1459 4.96197 12.2541 37.2959 -2.31585 -9.24991 175.466 1.76267 88.7457 -16.0999 -1.80827 -0.488537 59.8827 7.37869 14.8999 26.4142 1.5616 7.2346 -0.20626 7.2186 -90.3885 12.4338 -0.594568 -0.707817 0.76282 -0.625138 -0.680974 -21.7713 -0.354362 -0.853771 -1.75862 -0.354359 -0.853783 100.601 -54.9685 -84.4683 29.7281 -2.74925 -5.255 -3.54756 -9.31902 -14.4643 -11.6739 -0.725338 2.11108 -81.1375 -53.6595 92.0747 -26.0576 8.58171 -16.8171 -0.510937 31.633 -3.69362 -0.410951 -0.086577 -4.14867 0.0482538 -0.863471 -7.56559 -16.6588 -0.407857 5.54008 
-1.79054 99.2383 50.1578 147.246 -83.2468 150.134 -171.454 -3.25339 93.1604 -9.94998 6.20914 1.80236 60.7352 5.02307 11.3238 36.2238 -2.32946 -10.941 175.511 1.85652 88.7602 -16.2514 -1.74028 -0.538389 59.8828 7.53386 15.3185 25.9343 1.66998 7.44572 -0.166825 7.21766 -90.391 12.4364 -0.517338 -0.721501 0.76536 -0.548586 -0.698039 -21.7685 -0.276584 -0.843617 -1.75584 -0.276591 -0.843625 100.667 -54.9611 -84.3724 29.715 -2.86392 -5.23786 -3.47655 -9.19117 -14.5288 -11.9086 -0.760971 2.32105 -81.2441 -53.6061 91.9162 -25.9776 8.83553 -16.7947 -0.754143 29.996 -3.53801 0.290622 -0.106638 -5.04861 -0.000420663 -0.943188 -7.67471 -16.6192 -0.487794 5.67365 
-1.82955 99.2285 50.1621 149.304 -83.1827 152.145 -171.335 -3.44568 93.1531 -9.90042 4.50664 1.77331 61.4766 5.14549 10.3506 35.0281 -2.22546 -12.1782 175.557 1.67115 88.7699 -16.2006 -1.84206 -0.606069 59.9558 7.39197 15.2188 26.3509 1.58054 7.29553 -0.149678 7.23899 -90.3727 12.394 -0.474458 -0.690178 0.722949 -0.504373 -0.668644 -21.811 -0.245112 -0.800866 -1.79833 -0.245101 -0.800858 100.54 -55.1168 -84.5543 29.5961 -2.89868 -5.31819 -3.41516 -9.16889 -14.2805 -11.7647 -0.732527 2.12647 -81.297 -53.3898 91.8263 -26.0788 8.79616 -16.7996 -0.762248 29.8705 -3.48127 -0.444985 -0.10948 -5.4964 -0.128656 -0.948135 -7.94853 -16.4547 -0.474051 5.84895 
-1.82397 99.2237 50.0814 147.292 -83.0699 150.137 -171.369 -3.30967 93.1209 -9.86775 3.2238 1.8351 61.959 5.21674 9.41547 34.1515 -2.23768 -13.9759 175.502 1.81655 88.7267 -16.3886 -1.7467 -0.559677 59.7831 7.59891 15.3979 26.5002 1.5218 7.05281 -0.177241 7.24497 -90.3833 12.3818 -0.534245 -0.70455 0.710774 -0.564735 -0.680369 -21.8232 -0.29781 -0.832536 -1.81054 -0.29781 -0.832537 100.52 -55.0112 -84.587 29.5685 -3.01868 -5.38583 -3.26725 -8.85178 -14.209 -11.9275 -0.747283 2.17093 -81.2715 -53.5197 91.871 -26.1586 8.54297 -16.8519 -0.367007 32.2692 -3.78835 -0.337217 -0.0978556 -4.7485 -0.0241207 -1.07451 -7.65263 -16.3898 -0.596718 5.53751 
-1.83534 99.2147 50.052 147.048 -83.0613 149.817 -171.43 -3.3433 93.0025 -9.72122 2.0113 1.87487 62.5214 5.38509 8.68402 32.8566 -2.00783 -14.779 175.506 1.95579 88.6901 -16.6327 -1.63984 -0.584957 60.0385 7.47518 15.2669 26.1925 1.62669 7.43973 -0.168275 7.25847 -90.3855 12.3548 -0.517398 -0.710972 0.683786 -0.548181 -0.68752 -21.8501 -0.27981 -0.833592 -1.83746 -0.279812 -0.8336 100.494 -55.032 -84.6246 29.4895 -2.98992 -5.36397 -3.30002 -8.80209 -14.323 -11.831 -0.748662 2.24726 -81.3683 -53.7362 91.7428 -25.898 8.79634 -16.9365 -0.615192 30.1831 -3.71698 0.380218 -0.107307 -5.07869 0.106449 -1.04397 -7.27725 -16.4448 -0.584301 5.27362 
-1.84206 99.2197 49.9614 147.417 -82.9811 150.255 -171.426 -3.27732 93.033 -9.87238 1.19434 1.94572 62.8655 5.40987 8.1732 32.529 -2.01729 -15.6619 175.619 1.99089 88.804 -16.7953 -1.53888 -0.673055 60.0687 7.50206 15.442 26.1222 1.61773 7.28617 -0.144036 7.28745 -90.3995 12.2969 -0.475726 -0.743997 0.625805 -0.508006 -0.722348 -21.9079 -0.230137 -0.852566 -1.89521 -0.230141 -0.852574 100.566 -55.0771 -84.5177 29.3914 -2.94631 -5.40244 -3.31604 -8.65748 -14.3934 -11.5604 -0.719725 2.12843 -81.6046 -53.9493 91.4125 -25.8029 8.55175 -17.0283 -0.365456 31.4595 -3.86956 -0.215161 -0.0963938 -4.68494 0.344845 -1.00728 -7.00758 -16.5945 -0.531046 4.84337 
-1.82837 99.1804 49.8021 147.939 -82.8967 150.813 -171.467 -3.01458 93.0383 -10.3692 0.731052 1.99379 63.0568 5.39176 7.88618 32.3113 -1.99637 -16.0126 175.654 2.02622 88.8472 -16.8232 -1.59372 -0.679552 59.7796 7.56807 15.4566 26.4727 1.54139 7.15936 -0.120372 7.32481 -90.4242 12.2221 -0.440125 -0.797437 0.550976 -0.474792 -0.777294 -21.9824 -0.180122 -0.892835 -1.96972 -0.180123 -0.892838 100.695 -54.8403 -84.3343 29.5204 -2.97816 -5.47287 -3.32186 -8.61089 -14.4272 -11.4969 -0.705235 2.01926 -81.4835 -54.2488 91.6065 -25.4749 8.91308 -17.3171 -0.782049 30.3831 -3.6146 0.500653 -0.11291 -5.26242 0.564735 -1.02516 -7.19341 -16.5596 -0.582262 5.53137 
-1.789 99.1684 49.5799 149.629 -83.0629 152.511 -171.775 -2.70828 92.8022 -10.7444 0.179283 2.18428 63.152 5.50459 7.88922 32.2778 -1.97235 -15.8606 175.638 2.50025 88.8144 -17.3449 -2.03339 -0.623744 59.9517 7.22788 14.9524 26.6633 1.57393 7.63071 -0.0731746 7.36328 -90.4223 12.1454 -0.345174 -0.804578 0.474243 -0.38025 -0.78861 -22.059 -0.0874236 -0.871109 -2.04632 -0.087418 -0.871114 100.68 -54.8241 -84.3568 29.64 -2.96921 -5.58391 -3.38355 -8.78396 -14.3571 -11.4157 -0.673802 1.73986 -81.5036 -54.2506 91.5779 -25.4678 8.69082 -17.2388 -0.252126 31.3625 -4.2933 -0.352297 -0.0951763 -4.65094 0.846994 -1.25076 -7.47478 -16.4748 -0.739573 5.50462 
